<?xml version="1.0" encoding="UTF-8" standalone="no"?>
<!DOCTYPE svg PUBLIC "-//W3C//DTD SVG 1.1//EN"
 "http://www.w3.org/Graphics/SVG/1.1/DTD/svg11.dtd">
<!-- Generated by graphviz version 5.0.0 (20220707.1540)
 -->
<!-- Title: dependency&#45;cruiser output Pages: 1 -->
<svg width="597pt" height="205pt"
 viewBox="0.00 0.00 596.63 205.00" xmlns="http://www.w3.org/2000/svg" xmlns:xlink="http://www.w3.org/1999/xlink">
<g id="graph0" class="graph" transform="scale(1 1) rotate(0) translate(4 201)">
<title>dependency&#45;cruiser output</title>
<polygon fill="white" stroke="transparent" points="-4,4 -4,-201 592.63,-201 592.63,4 -4,4"/>
<g id="clust1" class="cluster">
<title>cluster_src</title>
<path fill="#ffffff" stroke="black" stroke-width="2" d="M20,-8C20,-8 568.63,-8 568.63,-8 574.63,-8 580.63,-14 580.63,-20 580.63,-20 580.63,-177 580.63,-177 580.63,-183 574.63,-189 568.63,-189 568.63,-189 20,-189 20,-189 14,-189 8,-183 8,-177 8,-177 8,-20 8,-20 8,-14 14,-8 20,-8"/>
<text text-anchor="middle" x="294.31" y="-176.9" font-family="Helvetica,sans-Serif" font-weight="bold" font-size="9.00">src</text>
</g>
<g id="clust2" class="cluster">
<title>cluster_src/animations</title>
<path fill="#ffffff" stroke="black" stroke-width="2" d="M91.01,-17C91.01,-17 262.07,-17 262.07,-17 268.07,-17 274.07,-23 274.07,-29 274.07,-29 274.07,-89 274.07,-89 274.07,-95 268.07,-101 262.07,-101 262.07,-101 91.01,-101 91.01,-101 85.01,-101 79.01,-95 79.01,-89 79.01,-89 79.01,-29 79.01,-29 79.01,-23 85.01,-17 91.01,-17"/>
<text text-anchor="middle" x="176.54" y="-88.9" font-family="Helvetica,sans-Serif" font-weight="bold" font-size="9.00">animations</text>
</g>
<g id="clust3" class="cluster">
<title>cluster_src/drawing</title>
<path fill="#ffffff" stroke="black" stroke-width="2" d="M294.07,-85C294.07,-85 416.59,-85 416.59,-85 422.59,-85 428.59,-91 428.59,-97 428.59,-97 428.59,-126 428.59,-126 428.59,-132 422.59,-138 416.59,-138 416.59,-138 294.07,-138 294.07,-138 288.07,-138 282.07,-132 282.07,-126 282.07,-126 282.07,-97 282.07,-97 282.07,-91 288.07,-85 294.07,-85"/>
<text text-anchor="middle" x="355.33" y="-125.9" font-family="Helvetica,sans-Serif" font-weight="bold" font-size="9.00">drawing</text>
</g>
<g id="clust4" class="cluster">
<title>cluster_src/models</title>
<path fill="#ffffff" stroke="black" stroke-width="2" d="M448.59,-16C448.59,-16 560.63,-16 560.63,-16 566.63,-16 572.63,-22 572.63,-28 572.63,-28 572.63,-150 572.63,-150 572.63,-156 566.63,-162 560.63,-162 560.63,-162 448.59,-162 448.59,-162 442.59,-162 436.59,-156 436.59,-150 436.59,-150 436.59,-28 436.59,-28 436.59,-22 442.59,-16 448.59,-16"/>
<text text-anchor="middle" x="504.61" y="-149.9" font-family="Helvetica,sans-Serif" font-weight="bold" font-size="9.00">models</text>
</g>
<!-- src/animations/CircleCreationAnimator.ts -->
<g id="node1" class="node">
<title>src/animations/CircleCreationAnimator.ts</title>
<g id="a_node1"><a xlink:href="src/animations/CircleCreationAnimator.ts" xlink:title="CircleCreationAnimator.ts">
<path fill="#ddfeff" stroke="black" d="M259.9,-74.3C259.9,-74.3 93.19,-74.3 93.19,-74.3 90.09,-74.3 86.99,-71.2 86.99,-68.1 86.99,-68.1 86.99,-61.9 86.99,-61.9 86.99,-58.8 90.09,-55.7 93.19,-55.7 93.19,-55.7 259.9,-55.7 259.9,-55.7 263,-55.7 266.1,-58.8 266.1,-61.9 266.1,-61.9 266.1,-68.1 266.1,-68.1 266.1,-71.2 263,-74.3 259.9,-74.3"/>
<text text-anchor="middle" x="176.54" y="-62.3" font-family="Helvetica,sans-Serif" font-size="9.00">src/animations/CircleCreationAnimator.ts</text>
</a>
</g>
</g>
<!-- src/models/Circle.ts -->
<g id="node2" class="node">
<title>src/models/Circle.ts</title>
<g id="a_node2"><a xlink:href="src/models/Circle.ts" xlink:title="Circle.ts">
<path fill="#ddfeff" stroke="black" d="M545.42,-73.3C545.42,-73.3 463.8,-73.3 463.8,-73.3 460.7,-73.3 457.59,-70.2 457.59,-67.1 457.59,-67.1 457.59,-60.9 457.59,-60.9 457.59,-57.8 460.7,-54.7 463.8,-54.7 463.8,-54.7 545.42,-54.7 545.42,-54.7 548.52,-54.7 551.62,-57.8 551.62,-60.9 551.62,-60.9 551.62,-67.1 551.62,-67.1 551.62,-70.2 548.52,-73.3 545.42,-73.3"/>
<text text-anchor="middle" x="504.61" y="-61.3" font-family="Helvetica,sans-Serif" font-size="9.00">src/models/Circle.ts</text>
</a>
</g>
</g>
<!-- src/animations/CircleCreationAnimator.ts&#45;&gt;src/models/Circle.ts -->
<g id="edge1" class="edge">
<title>src/animations/CircleCreationAnimator.ts&#45;&gt;src/models/Circle.ts</title>
<path fill="none" stroke="#000000" stroke-width="2" stroke-opacity="0.200000" d="M266.2,-58.65C271.57,-58.39 276.89,-58.17 282.07,-58 347.15,-55.82 363.52,-55.4 428.59,-58 435.83,-58.29 443.46,-58.73 450.96,-59.26"/>
<polygon fill="#000000" fill-opacity="0.200000" stroke="#000000" stroke-width="2" stroke-opacity="0.200000" points="451.09,-61.37 457.22,-59.71 451.39,-57.18 451.09,-61.37"/>
</g>
<!-- src/models/Color.ts -->
<g id="node3" class="node">
<title>src/models/Color.ts</title>
<g id="a_node3"><a xlink:href="src/models/Color.ts" xlink:title="Color.ts">
<path fill="#ddfeff" stroke="black" d="M544.93,-104.3C544.93,-104.3 464.29,-104.3 464.29,-104.3 461.19,-104.3 458.09,-101.2 458.09,-98.1 458.09,-98.1 458.09,-91.9 458.09,-91.9 458.09,-88.8 461.19,-85.7 464.29,-85.7 464.29,-85.7 544.93,-85.7 544.93,-85.7 548.03,-85.7 551.13,-88.8 551.13,-91.9 551.13,-91.9 551.13,-98.1 551.13,-98.1 551.13,-101.2 548.03,-104.3 544.93,-104.3"/>
<text text-anchor="middle" x="504.61" y="-92.3" font-family="Helvetica,sans-Serif" font-size="9.00">src/models/Color.ts</text>
</a>
</g>
</g>
<!-- src/animations/CircleCreationAnimator.ts&#45;&gt;src/models/Color.ts -->
<g id="edge2" class="edge">
<title>src/animations/CircleCreationAnimator.ts&#45;&gt;src/models/Color.ts</title>
<path fill="none" stroke="#000000" stroke-width="2" stroke-opacity="0.200000" d="M266.36,-61.19C326.46,-59.8 399.92,-60.77 428.59,-72 432.99,-73.72 432.39,-76.83 436.59,-79 441.43,-81.5 446.67,-83.61 452.01,-85.4"/>
<polygon fill="#000000" fill-opacity="0.200000" stroke="#000000" stroke-width="2" stroke-opacity="0.200000" points="451.48,-87.44 457.83,-87.22 452.73,-83.43 451.48,-87.44"/>
</g>
<!-- src/models/GameBoard.ts -->
<g id="node4" class="node">
<title>src/models/GameBoard.ts</title>
<g id="a_node4"><a xlink:href="src/models/GameBoard.ts" xlink:title="GameBoard.ts">
<path fill="#ddfeff" stroke="black" d="M558.44,-135.3C558.44,-135.3 450.77,-135.3 450.77,-135.3 447.67,-135.3 444.57,-132.2 444.57,-129.1 444.57,-129.1 444.57,-122.9 444.57,-122.9 444.57,-119.8 447.67,-116.7 450.77,-116.7 450.77,-116.7 558.44,-116.7 558.44,-116.7 561.54,-116.7 564.65,-119.8 564.65,-122.9 564.65,-122.9 564.65,-129.1 564.65,-129.1 564.65,-132.2 561.54,-135.3 558.44,-135.3"/>
<text text-anchor="middle" x="504.61" y="-123.3" font-family="Helvetica,sans-Serif" font-size="9.00">src/models/GameBoard.ts</text>
</a>
</g>
</g>
<!-- src/animations/CircleCreationAnimator.ts&#45;&gt;src/models/GameBoard.ts -->
<g id="edge3" class="edge">
<title>src/animations/CircleCreationAnimator.ts&#45;&gt;src/models/GameBoard.ts</title>
<path fill="none" stroke="#000000" stroke-width="2" stroke-opacity="0.200000" d="M266.23,-69.83C337.18,-73.87 425.36,-79.39 428.59,-82 438.65,-90.14 427.24,-101.05 436.59,-110 437.76,-111.12 439,-112.17 440.29,-113.15"/>
<polygon fill="#000000" fill-opacity="0.200000" stroke="#000000" stroke-width="2" stroke-opacity="0.200000" points="439.34,-115.04 445.51,-116.59 441.66,-111.53 439.34,-115.04"/>
</g>
<!-- src/animations/CirclesAnimator.ts -->
<g id="node5" class="node">
<title>src/animations/CirclesAnimator.ts</title>
<g id="a_node5"><a xlink:href="src/animations/CirclesAnimator.ts" xlink:title="CirclesAnimator.ts">
<path fill="#ddfeff" stroke="black" d="M244.88,-43.3C244.88,-43.3 108.21,-43.3 108.21,-43.3 105.11,-43.3 102,-40.2 102,-37.1 102,-37.1 102,-30.9 102,-30.9 102,-27.8 105.11,-24.7 108.21,-24.7 108.21,-24.7 244.88,-24.7 244.88,-24.7 247.98,-24.7 251.08,-27.8 251.08,-30.9 251.08,-30.9 251.08,-37.1 251.08,-37.1 251.08,-40.2 247.98,-43.3 244.88,-43.3"/>
<text text-anchor="middle" x="176.54" y="-31.3" font-family="Helvetica,sans-Serif" font-size="9.00">src/animations/CirclesAnimator.ts</text>
</a>
</g>
</g>
<!-- src/animations/CirclesAnimator.ts&#45;&gt;src/models/Circle.ts -->
<g id="edge5" class="edge">
<title>src/animations/CirclesAnimator.ts&#45;&gt;src/models/Circle.ts</title>
<path fill="none" stroke="#000000" stroke-width="2" stroke-opacity="0.200000" d="M251.27,-38.22C301.36,-41.42 369.07,-46.39 428.59,-53 435.85,-53.81 443.48,-54.78 450.99,-55.81"/>
<polygon fill="#000000" fill-opacity="0.200000" stroke="#000000" stroke-width="2" stroke-opacity="0.200000" points="451.02,-57.93 457.25,-56.68 451.6,-53.77 451.02,-57.93"/>
</g>
<!-- src/drawing/CirclesDrawer.ts -->
<g id="node6" class="node">
<title>src/drawing/CirclesDrawer.ts</title>
<g id="a_node6"><a xlink:href="src/drawing/CirclesDrawer.ts" xlink:title="CirclesDrawer.ts">
<path fill="#ddfeff" stroke="black" d="M414.15,-111.3C414.15,-111.3 296.51,-111.3 296.51,-111.3 293.41,-111.3 290.31,-108.2 290.31,-105.1 290.31,-105.1 290.31,-98.9 290.31,-98.9 290.31,-95.8 293.41,-92.7 296.51,-92.7 296.51,-92.7 414.15,-92.7 414.15,-92.7 417.25,-92.7 420.35,-95.8 420.35,-98.9 420.35,-98.9 420.35,-105.1 420.35,-105.1 420.35,-108.2 417.25,-111.3 414.15,-111.3"/>
<text text-anchor="middle" x="355.33" y="-99.3" font-family="Helvetica,sans-Serif" font-size="9.00">src/drawing/CirclesDrawer.ts</text>
</a>
</g>
</g>
<!-- src/animations/CirclesAnimator.ts&#45;&gt;src/drawing/CirclesDrawer.ts -->
<g id="edge4" class="edge">
<title>src/animations/CirclesAnimator.ts&#45;&gt;src/drawing/CirclesDrawer.ts</title>
<path fill="none" stroke="#000000" stroke-width="2" stroke-opacity="0.200000" d="M251.13,-42.94C259,-44.85 266.78,-47.18 274.07,-50 298.27,-59.38 322.85,-76.69 338.31,-88.75"/>
<polygon fill="#000000" fill-opacity="0.200000" stroke="#000000" stroke-width="2" stroke-opacity="0.200000" points="337.19,-90.54 343.19,-92.62 339.8,-87.25 337.19,-90.54"/>
</g>
<!-- src/models/Direction.ts -->
<g id="node7" class="node">
<title>src/models/Direction.ts</title>
<g id="a_node7"><a xlink:href="src/models/Direction.ts" xlink:title="Direction.ts">
<path fill="#ddfeff" stroke="black" d="M551.93,-42.3C551.93,-42.3 457.29,-42.3 457.29,-42.3 454.19,-42.3 451.08,-39.2 451.08,-36.1 451.08,-36.1 451.08,-29.9 451.08,-29.9 451.08,-26.8 454.19,-23.7 457.29,-23.7 457.29,-23.7 551.93,-23.7 551.93,-23.7 555.03,-23.7 558.13,-26.8 558.13,-29.9 558.13,-29.9 558.13,-36.1 558.13,-36.1 558.13,-39.2 555.03,-42.3 551.93,-42.3"/>
<text text-anchor="middle" x="504.61" y="-30.3" font-family="Helvetica,sans-Serif" font-size="9.00">src/models/Direction.ts</text>
</a>
</g>
</g>
<!-- src/animations/CirclesAnimator.ts&#45;&gt;src/models/Direction.ts -->
<g id="edge6" class="edge">
<title>src/animations/CirclesAnimator.ts&#45;&gt;src/models/Direction.ts</title>
<path fill="none" stroke="#000000" stroke-width="2" stroke-opacity="0.200000" d="M251.2,-30.83C261.56,-30.48 272.08,-30.19 282.07,-30 347.18,-28.75 363.48,-28.7 428.59,-30 433.74,-30.1 439.09,-30.25 444.46,-30.41"/>
<polygon fill="#000000" fill-opacity="0.200000" stroke="#000000" stroke-width="2" stroke-opacity="0.200000" points="444.68,-32.52 450.75,-30.62 444.82,-28.32 444.68,-32.52"/>
</g>
<!-- src/drawing/CirclesDrawer.ts&#45;&gt;src/models/Circle.ts -->
<g id="edge12" class="edge">
<title>src/drawing/CirclesDrawer.ts&#45;&gt;src/models/Circle.ts</title>
<path fill="none" stroke="#000000" stroke-width="2" stroke-opacity="0.200000" d="M389.46,-92.65C403.9,-88.65 421.06,-83.98 436.59,-80 443.38,-78.26 450.57,-76.48 457.63,-74.76"/>
<polygon fill="#000000" fill-opacity="0.200000" stroke="#000000" stroke-width="2" stroke-opacity="0.200000" points="458.17,-76.79 463.51,-73.34 457.18,-72.71 458.17,-76.79"/>
</g>
<!-- src/drawing/CirclesDrawer.ts&#45;&gt;src/models/Color.ts -->
<g id="edge13" class="edge">
<title>src/drawing/CirclesDrawer.ts&#45;&gt;src/models/Color.ts</title>
<path fill="none" stroke="#000000" stroke-width="2" stroke-opacity="0.200000" d="M420.5,-98.95C430.9,-98.46 441.56,-97.95 451.62,-97.47"/>
<polygon fill="#000000" fill-opacity="0.200000" stroke="#000000" stroke-width="2" stroke-opacity="0.200000" points="451.91,-99.56 457.8,-97.18 451.71,-95.36 451.91,-99.56"/>
</g>
<!-- src/drawing/CirclesDrawer.ts&#45;&gt;src/models/GameBoard.ts -->
<g id="edge14" class="edge">
<title>src/drawing/CirclesDrawer.ts&#45;&gt;src/models/GameBoard.ts</title>
<path fill="none" stroke="#000000" stroke-width="2" stroke-opacity="0.200000" d="M413.69,-111.35C422.36,-112.76 431.33,-114.22 440.12,-115.65"/>
<polygon fill="#000000" fill-opacity="0.200000" stroke="#000000" stroke-width="2" stroke-opacity="0.200000" points="439.9,-117.75 446.16,-116.64 440.58,-113.6 439.9,-117.75"/>
</g>
<!-- src/app.ts -->
<g id="node8" class="node">
<title>src/app.ts</title>
<g id="a_node8"><a xlink:href="src/app.ts" xlink:title="app.ts">
<path fill="#ddfeff" stroke="black" d="M64.82,-119.3C64.82,-119.3 22.19,-119.3 22.19,-119.3 19.09,-119.3 15.99,-116.2 15.99,-113.1 15.99,-113.1 15.99,-106.9 15.99,-106.9 15.99,-103.8 19.09,-100.7 22.19,-100.7 22.19,-100.7 64.82,-100.7 64.82,-100.7 67.92,-100.7 71.02,-103.8 71.02,-106.9 71.02,-106.9 71.02,-113.1 71.02,-113.1 71.02,-116.2 67.92,-119.3 64.82,-119.3"/>
<text text-anchor="middle" x="43.51" y="-107.3" font-family="Helvetica,sans-Serif" font-size="9.00">src/app.ts</text>
</a>
</g>
</g>
<!-- src/app.ts&#45;&gt;src/animations/CircleCreationAnimator.ts -->
<g id="edge7" class="edge">
<title>src/app.ts&#45;&gt;src/animations/CircleCreationAnimator.ts</title>
<path fill="none" stroke="#000000" stroke-width="2" stroke-opacity="0.200000" d="M51.91,-100.47C58.25,-93.05 68.08,-83.16 79.01,-78 79.96,-77.55 80.92,-77.12 81.88,-76.7"/>
<polygon fill="#000000" fill-opacity="0.200000" stroke="#000000" stroke-width="2" stroke-opacity="0.200000" points="82.73,-78.63 87.52,-74.45 81.17,-74.73 82.73,-78.63"/>
</g>
<!-- src/app.ts&#45;&gt;src/models/Color.ts -->
<g id="edge10" class="edge">
<title>src/app.ts&#45;&gt;src/models/Color.ts</title>
<path fill="none" stroke="#000000" stroke-width="2" stroke-opacity="0.200000" d="M71.28,-114.21C153.79,-126.91 400.38,-162.68 428.59,-141 439.53,-132.59 426.71,-120.63 436.59,-111 441.03,-106.68 446.41,-103.45 452.17,-101.05"/>
<polygon fill="#000000" fill-opacity="0.200000" stroke="#000000" stroke-width="2" stroke-opacity="0.200000" points="453.12,-102.94 458.04,-98.92 451.68,-99 453.12,-102.94"/>
</g>
<!-- src/app.ts&#45;&gt;src/models/GameBoard.ts -->
<g id="edge11" class="edge">
<title>src/app.ts&#45;&gt;src/models/GameBoard.ts</title>
<path fill="none" stroke="#000000" stroke-width="2" stroke-opacity="0.200000" d="M56.22,-119.51C62.57,-124.12 70.8,-129.25 79.01,-132 226.5,-181.38 274.64,-170.11 428.59,-148 443.27,-145.89 459.09,-141.58 472.39,-137.32"/>
<polygon fill="#000000" fill-opacity="0.200000" stroke="#000000" stroke-width="2" stroke-opacity="0.200000" points="473.27,-139.24 478.32,-135.38 471.96,-135.25 473.27,-139.24"/>
</g>
<!-- src/app.ts&#45;&gt;src/animations/CirclesAnimator.ts -->
<g id="edge8" class="edge">
<title>src/app.ts&#45;&gt;src/animations/CirclesAnimator.ts</title>
<path fill="none" stroke="#000000" stroke-width="2" stroke-opacity="0.200000" d="M47.13,-100.54C51.4,-86.98 61.24,-62.33 79.01,-50 84.14,-46.44 89.79,-43.57 95.7,-41.27"/>
<polygon fill="#000000" fill-opacity="0.200000" stroke="#000000" stroke-width="2" stroke-opacity="0.200000" points="96.73,-43.14 101.68,-39.16 95.33,-39.18 96.73,-43.14"/>
</g>
<!-- src/app.ts&#45;&gt;src/drawing/CirclesDrawer.ts -->
<g id="edge9" class="edge">
<title>src/app.ts&#45;&gt;src/drawing/CirclesDrawer.ts</title>
<path fill="none" stroke="#000000" stroke-width="2" stroke-opacity="0.200000" d="M71.19,-109.31C118.07,-108.1 216.63,-105.56 284.15,-103.81"/>
<polygon fill="#000000" fill-opacity="0.200000" stroke="#000000" stroke-width="2" stroke-opacity="0.200000" points="284.24,-105.91 290.18,-103.66 284.13,-101.71 284.24,-105.91"/>
</g>
</g>
</svg>
